PathFileType	4	(X/Y/Z)	Patient4_TMGait_0pt8_01_left_21.trc.trc
DataRate	CameraRate	NumFrames	NumMarkers	Units	OrigDataRate	OrigDataStartFrame	OrigNumFrames
90.909090909091	90.909090909091	5	33	mm	90.909090909091	36	       141
Frame#	Time	Sacral			L.Shoulder			Chest			R.Shoulder			Neck			R.ASIS			L.ASIS			R.Thigh.Superior			R.Thigh.Lateral			R.Thigh.Inferior			R.Patella			L.Thigh.Superior			L.Thigh.Lateral			L.Thigh.Inferior			L.Patella			L.Shank.Superior			L.Shank.Lateral			L.Shank.Inferior			R.Shank.Superior			R.Shank.Lateral			R.Shank.Inferior			R.Heel			R.Midfoot.Superior			R.Midfoot.Lateral			R.Toe			L.Heel			L.Midfoot.Lateral			L.Midfoot.Superior			L.Toe			L.Elbow			L.Wrist			R.Elbow			R.Wrist			
		X1	Y1	Z1	X2	Y2	Z2	X3	Y3	Z3	X4	Y4	Z4	X5	Y5	Z5	X6	Y6	Z6	X7	Y7	Z7	X8	Y8	Z8	X9	Y9	Z9	X10	Y10	Z10	X11	Y11	Z11	X12	Y12	Z12	X13	Y13	Z13	X14	Y14	Z14	X15	Y15	Z15	X16	Y16	Z16	X17	Y17	Z17	X18	Y18	Z18	X19	Y19	Z19	X20	Y20	Z20	X21	Y21	Z21	X22	Y22	Z22	X23	Y23	Z23	X24	Y24	Z24	X25	Y25	Z25	X26	Y26	Z26	X27	Y27	Z27	X28	Y28	Z28	X29	Y29	Z29	X30	Y30	Z30	X31	Y31	Z31	X32	Y32	Z32	X33	Y33	Z33	

36	23.205000000000	923.085621853601	1005.544201801354	461.293005181840	1087.360558829743	1427.548175898076	275.021446448678	1203.745454607703	1358.134324094889	427.110280393076	1135.059233548417	1432.715364130755	607.758071743064	1081.420229232766	1487.907813625078	431.105740610543	1148.671873018467	930.136577926266	569.792497475667	1129.595798066046	952.408667168132	297.557981607317	1157.967489621507	717.744807309747	549.650528080599	1060.319785798695	619.686198129297	611.799950031860	1132.306357800462	551.238108715051	538.642876744561	1108.754041455713	446.221913397253	555.573856924100	1196.894505393487	762.601192429225	325.364887914442	1126.339034786210	635.768477070130	263.072993141939	1227.057625819730	571.882621923877	319.998139919876	1239.027315083858	501.893086938311	325.462013113276	1218.980645074743	426.569935587904	321.376483085258	1137.761166707682	301.137891592641	282.821992571177	1211.820426526683	198.965005157766	348.780379259242	1030.767566612276	384.317938013674	558.503342984791	910.107664678205	342.486032076815	618.118667490423	897.530165392014	235.079279167075	562.873675948598	695.300703436274	154.863988459968	530.415832750741	870.195499802818	121.683816172473	572.106382874545	761.243620139461	103.243347474003	602.753848088401	948.636703322694	31.902322693785	595.467775423456	1105.784025275837	38.454607755302	410.108160404592	1169.804826123105	36.308601390523	320.664244290685	1253.998821371448	98.815703487579	337.641561584976	1378.920107085944	49.946600823580	295.782831553630	966.694855070411	1094.972807815176	177.721506853862	927.739251051163	839.779549188086	169.940179018308	1200.508522237992	1097.273385995562	736.652799919672	1446.479854523536	1080.308691602126	684.676236603755	
37	23.216000000000	922.520582481639	1006.291536551793	458.509244317086	1088.591080908169	1428.295387822146	272.265749621770	1203.498125076853	1359.257583252848	425.628147581162	1133.122818593886	1434.395233836909	605.397459492826	1081.203864596367	1489.151947950024	428.160768093201	1147.788899767904	931.398774626982	568.252404841793	1129.875756591495	953.799788782797	295.964848086113	1163.885981911882	720.534313693539	548.054758827383	1069.974817880737	619.790938973178	610.826826742025	1144.670174933705	552.822443587584	538.208784680952	1122.673027146307	445.912281783920	556.267229393825	1195.905272061939	762.145774874199	320.707482855332	1122.127511581172	635.838474976333	261.476540219850	1222.861045259654	571.054275241634	317.066290550977	1234.159257486421	501.389243457198	323.435198423382	1213.604547661204	426.079420668776	319.848061466284	1131.100310785233	301.293748975150	281.788941652773	1204.206659481551	198.666979660690	348.040397513547	1042.091712203132	385.028438778795	558.036688422744	919.296398525392	348.364201872887	616.985674261689	902.540768287798	241.666738212771	562.095685218243	697.646040658649	172.049593349744	528.535951970485	870.221972312602	128.793196044059	571.544355662513	760.006904003132	116.340820337809	601.128404742824	942.774096022957	32.480897505575	595.052893873988	1097.057218660721	38.465889122212	409.899075758654	1161.075399729183	36.255125133755	320.441622107065	1245.261600812313	98.785150434129	337.336628115020	1370.182335869506	49.994111044285	295.528560193394	975.859487263504	1092.587179409465	173.236161549256	944.885998298564	836.118478057778	165.645658206882	1188.785458632916	1097.248919942696	735.547052072210	1434.114483422871	1065.166830376399	685.790828880732	
38	23.227000000000	921.820138648113	1006.963848579884	455.880927137567	1089.522629347543	1429.031185011454	269.657616828269	1202.998587496555	1360.429582855950	424.254954213184	1130.929340395538	1435.980078034977	603.189280555434	1080.796315908615	1490.345405323126	425.405207319048	1146.904731338605	932.622383364661	566.801057915163	1130.009866040131	955.205544090261	294.407912416649	1169.864327259073	723.654067054131	546.598650714762	1079.780020754956	620.355469093916	610.032530164266	1157.069136710627	554.991697544270	537.876132276048	1136.846679376268	446.344948854579	556.864745310916	1194.642853903383	761.497525608001	316.137405682167	1117.604285694437	635.842091138052	260.096503823317	1218.306590053420	570.132917520946	314.429607474120	1228.877891663563	500.798095008413	321.671780151841	1207.830903562042	425.563285524934	318.510016515704	1124.101309056010	301.391605453534	280.966108767191	1196.380355432250	198.352571136874	347.428300570282	1053.914285864647	386.255478903653	557.525548270882	929.204429659796	354.691888089557	615.786338146160	908.403911187672	248.888018669709	561.179021955287	701.392850120795	189.651883007488	526.461643326286	871.278451338180	136.864622582513	570.715364555483	760.121942431178	130.206279554628	599.302698327519	938.009366201959	34.150437124229	594.393552563561	1088.229103582880	38.454448408913	409.757506879034	1152.245876360997	36.171945236888	320.300867507116	1236.455343832021	98.708132545212	337.128851296273	1361.371846879238	49.915500623367	295.363931546091	985.279567474684	1090.284656460800	168.835942119461	962.935094565661	832.715401461919	161.368614827252	1176.896519263660	1097.400668507908	734.395634035986	1420.629600127723	1049.289772224288	687.175432219680	
39	23.238000000000	921.022995863629	1007.570678442666	453.436026485466	1090.156831510346	1429.745298392031	267.202049590208	1202.268128714796	1361.643717241274	422.988270351619	1128.513608130150	1437.454012261159	601.143795370740	1080.206664117427	1491.485016641773	422.845043750438	1146.048611578962	933.804997697107	565.421194695058	1130.013134683212	956.612989717585	292.893564472285	1175.765120951018	727.085631140845	545.248995790145	1089.573830132188	621.411154686454	609.385528508601	1169.292806538406	557.763265512000	537.591830351619	1151.063634567199	447.536058567202	557.325238409056	1193.085974854663	760.712941978739	311.938251340270	1112.965745962527	635.867314748976	258.884159906698	1213.474289229642	569.177496436915	312.189176553408	1223.241115827553	500.142949601205	320.194049099611	1201.721827649526	425.046485410299	317.370922453244	1116.855737842029	301.457458055184	280.294031872261	1188.393515595319	198.040495288125	346.927705284566	1066.040033866899	388.014740501697	556.979243286561	939.635975143979	361.398342414706	614.534693636258	915.040134684464	256.600014736702	560.155619913977	706.439668564881	207.204399548737	524.258873486843	873.387790210166	145.680029343937	569.621579075465	761.621291789851	144.459588395075	597.333010244007	934.544518412421	37.077575235068	593.488435402164	1079.329918131685	38.433053084591	409.655344494888	1143.348914886971	36.072729871568	320.215517712459	1227.606900820478	98.601012395081	336.994382369056	1352.514478475437	49.743426878997	295.272205011335	994.926964591837	1088.111193232868	164.560331459133	981.782706023238	829.690596825479	157.138677907553	1164.932496374078	1097.689574208479	733.191200440835	1405.961728514978	1032.839234675964	688.846001425014	
40	23.249000000000	920.173543473356	1008.130590700640	451.196253150434	1090.503543309570	1430.440337837876	264.908179343254	1201.335774126908	1362.892831231754	421.824680437652	1125.925413612413	1438.812560006810	599.266859361299	1079.449772842682	1492.575429011699	420.486907027252	1145.241924728486	934.953815961449	564.089044616507	1129.896678541717	958.013879802779	291.420476715310	1181.468415830659	730.801789178146	543.961434969350	1099.224042949410	622.960574358414	608.852026288373	1181.177059510089	561.127646137686	537.311320060820	1165.149823488423	449.470124691896	557.631620378259	1191.225952931409	759.860701745839	308.329550903406	1108.358119679036	635.979275164829	257.792474336703	1208.432531335805	568.236052473955	310.391170954626	1217.306776445337	499.448050650554	318.998323403082	1195.336571464866	424.551430164468	316.418460769971	1109.433127115920	301.517471681431	279.726794999944	1180.290712566781	197.748647290649	346.513571728647	1078.304503664576	390.299567270474	556.417370304599	950.421752717064	368.378764898060	613.256729067289	922.381375041681	264.619992160151	559.068468456602	712.664342674045	224.239914928952	521.994421460678	876.569009354226	154.957306021857	568.295261780949	764.504474504569	158.691601381650	595.289150410479	932.564925420872	41.290190011238	592.385439562920	1070.389317129335	38.413151726837	409.568864708970	1134.414831866814	35.968988005648	320.161769407725	1218.737883704556	98.481293122628	336.905808940623	1343.631807694777	49.516398364957	295.231133378391	1004.777058274311	1086.124827141156	160.443805760818	1001.331477783511	827.171666190396	152.986688006142	1152.974581189832	1098.085242067134	731.924292422343	1390.054652507219	1015.994639269637	690.808275354140	
